# xmcd
#
# Track frame offsets: 
#        150
#        11798
#        27098
#        40330
#        52353
#        64193
#        76633
#        89530
#        101975
#        113860
#        126340
#        137733
#        150233
#        161863
#        175168
#        186628
#        200105
#        212423
#        224373
#        236505
#
# Disc length: 3341 seconds
#
# Revision: 4
# Processed by: cddbd v1.5.2PL0 Copyright (c) Steve Scherf et al.
# Submitted via: ExactAudioCopy v0.99pb4
#
DISCID=280d0b14
DTITLE=Spade Cooley - Spadella! The Essential Spade Cooley
DYEAR=1994
DGENRE=Other
TTITLE0=Trouble Over You
TTITLE1=Oklahoma Stomp
TTITLE2=You Can't Break My Heart
TTITLE3=Detour
TTITLE4=Crazy 'Cause I Love You
TTITLE5=Swingin' the Devil's Dream
TTITLE6=Shame On You
TTITLE7=Forgive Me One More Time
TTITLE8=You Better Do It Now
TTITLE9=Steel Guitar Rag
TTITLE10=You'll Rue The Day
TTITLE11=You Never Miss the Water (Till The Well Runs Dry)
TTITLE12=I Guess I've Been Dreaming Again
TTITLE13=A Pair Of Broken Hearts
TTITLE14=Cow Bell Polka
TTITLE15=Hide Your Face
TTITLE16=I Can't Help The Way You Feel
TTITLE17=I've Taken All I'm Gonna Take From You
TTITLE18=Three Way Boogie
TTITLE19=Spadella
EXTD=Recorded 1944-12-04/1946-06-06.\nCD: Columbia/Legacy CK 57392 (19
EXTD=94),UPC 074645739229.
EXTT0=
EXTT1=Instrumental
EXTT2=previously unissued alternate version
EXTT3=
EXTT4=
EXTT5=instrumental
EXTT6=
EXTT7=
EXTT8=
EXTT9=instrumental
EXTT10=
EXTT11=
EXTT12=
EXTT13=
EXTT14=instrumental
EXTT15=
EXTT16=
EXTT17=
EXTT18=instrumental
EXTT19=instrumental
PLAYORDER=
